<?xml version="1.0"?>
<svg xmlns="http://www.w3.org/2000/svg" xmlns:xlink="http://www.w3.org/1999/xlink" version="1.1" viewBox="0 0 192 192" width="48px" height="48px"><g fill="none" fill-rule="nonzero" stroke="none" stroke-width="1" stroke-linecap="butt" stroke-linejoin="miter" stroke-miterlimit="10" stroke-dasharray="" stroke-dashoffset="0" font-family="none" font-weight="none" font-size="none" text-anchor="none" style="mix-blend-mode: normal"><path d="M0,192v-192h192v192z" fill="none"/><g id="original-icon" fill="#ffffff"><path d="M39.92188,31.92188c-3.25538,0.00085 -6.18567,1.97404 -7.41065,4.99016c-1.22498,3.01612 -0.50037,6.47372 1.83252,8.74421l50.34375,50.34375l-50.34375,50.34375c-2.0899,2.00654 -2.93176,4.98613 -2.2009,7.78965c0.73086,2.80352 2.92023,4.99289 5.72375,5.72375c2.80352,0.73086 5.78311,-0.111 7.78965,-2.20091l50.34375,-50.34375l50.34375,50.34375c2.00653,2.08993 4.98614,2.93181 7.78967,2.20095c2.80354,-0.73085 4.99292,-2.92024 5.72377,-5.72377c0.73085,-2.80354 -0.11102,-5.78314 -2.20095,-7.78967l-50.34375,-50.34375l50.34375,-50.34375c2.36608,-2.29993 3.07751,-5.81653 1.79148,-8.8553c-1.28603,-3.03877 -4.3057,-4.97634 -7.60397,-4.87907c-2.07839,0.06193 -4.05103,0.93056 -5.5,2.42188l-50.34375,50.34375l-50.34375,-50.34375c-1.50617,-1.54826 -3.57436,-2.42175 -5.73437,-2.42188z"/></g></g></svg>
